<svg width="148" height="21" viewBox="0 0 148 21" fill="none" xmlns="http://www.w3.org/2000/svg">
<path d="M0.03125 16L2.6875 -4.76837e-07H7.03125L6 6.25H11.75L12.7813 -4.76837e-07H17.125L14.4688 16H10.125L11.1563 9.75H5.40625L4.375 16H0.03125ZM22.3125 16.2187C21.0313 16.2187 19.9688 15.974 19.125 15.4844C18.2813 14.9896 17.6875 14.2812 17.3438 13.3594C17 12.4323 16.9375 11.3229 17.1563 10.0313C17.3646 8.79167 17.7943 7.70833 18.4453 6.78125C19.1016 5.85417 19.9271 5.13281 20.9219 4.61719C21.9219 4.10156 23.0417 3.84375 24.2813 3.84375C25.1875 3.84375 25.9818 3.98438 26.6641 4.26562C27.3516 4.54687 27.9115 4.95573 28.3438 5.49219C28.776 6.02865 29.0677 6.67708 29.2188 7.4375C29.375 8.19271 29.375 9.04687 29.2188 10L29.0625 11H18.3438L18.7188 8.625H25.4688C25.5208 8.28125 25.487 7.97917 25.3672 7.71875C25.2526 7.45312 25.0677 7.2474 24.8125 7.10156C24.5625 6.95052 24.2604 6.875 23.9063 6.875C23.5521 6.875 23.2188 6.95052 22.9063 7.10156C22.599 7.2526 22.3359 7.46354 22.1172 7.73437C21.9036 8.00521 21.7604 8.32292 21.6875 8.6875L21.2188 11.1875C21.1563 11.5729 21.1797 11.9167 21.2891 12.2188C21.3984 12.5208 21.5885 12.7578 21.8594 12.9297C22.1302 13.1016 22.4792 13.1875 22.9063 13.1875C23.1979 13.1875 23.474 13.1484 23.7344 13.0703C24 12.987 24.2344 12.8672 24.4375 12.7109C24.6458 12.5495 24.8125 12.3542 24.9375 12.125H28.875C28.5938 12.9583 28.1484 13.6823 27.5391 14.2969C26.9349 14.9063 26.1901 15.3802 25.3047 15.7187C24.4245 16.0521 23.4271 16.2187 22.3125 16.2187ZM33.291 16.1875C32.5306 16.1875 31.877 16.0625 31.3301 15.8125C30.7884 15.5573 30.3926 15.1719 30.1426 14.6562C29.8978 14.1354 29.8431 13.4792 29.9785 12.6875C30.0879 12.0312 30.2936 11.4714 30.5957 11.0078C30.8978 10.5443 31.2728 10.1641 31.7207 9.86719C32.1686 9.57031 32.6712 9.34375 33.2285 9.1875C33.791 9.02604 34.3848 8.92187 35.0098 8.875C35.6868 8.82292 36.2363 8.75781 36.6582 8.67969C37.0801 8.60156 37.3952 8.49479 37.6035 8.35937C37.8118 8.22396 37.9368 8.04167 37.9785 7.8125V7.78125C38.0254 7.46875 37.9421 7.22917 37.7285 7.0625C37.5202 6.89583 37.2285 6.8125 36.8535 6.8125C36.4473 6.8125 36.0957 6.90104 35.7988 7.07812C35.5072 7.25521 35.3066 7.53125 35.1973 7.90625H31.2285C31.3952 7.17708 31.7363 6.50521 32.252 5.89062C32.7728 5.27083 33.4629 4.77604 34.3223 4.40625C35.1868 4.03125 36.2181 3.84375 37.416 3.84375C38.2702 3.84375 39.0202 3.94531 39.666 4.14844C40.3118 4.34635 40.8457 4.625 41.2676 4.98437C41.6947 5.33854 41.9941 5.75521 42.166 6.23437C42.3431 6.70833 42.3848 7.22396 42.291 7.78125L40.916 16H36.8848L37.166 14.3125H37.0723C36.7598 14.7604 36.4082 15.1224 36.0176 15.3984C35.6322 15.6745 35.2103 15.875 34.752 16C34.2988 16.125 33.8118 16.1875 33.291 16.1875ZM35.166 13.4687C35.4889 13.4687 35.8066 13.401 36.1191 13.2656C36.4316 13.1302 36.6999 12.9349 36.9238 12.6797C37.1478 12.4245 37.291 12.1146 37.3535 11.75L37.5098 10.75C37.3952 10.7969 37.2676 10.8411 37.127 10.8828C36.9915 10.9193 36.8483 10.9557 36.6973 10.9922C36.5514 11.0286 36.3952 11.0625 36.2285 11.0937C36.0671 11.125 35.9004 11.1562 35.7285 11.1875C35.3848 11.2396 35.0957 11.3255 34.8613 11.4453C34.627 11.5599 34.4447 11.7031 34.3145 11.875C34.1842 12.0417 34.1035 12.2292 34.0723 12.4375C34.0254 12.7656 34.1009 13.0208 34.2988 13.2031C34.502 13.3802 34.791 13.4687 35.166 13.4687ZM49.9453 -4.76837e-07L47.2891 16H42.9766L45.6328 -4.76837e-07H49.9453ZM58.6426 4L58.1113 7.125H50.2051L50.7363 4H58.6426ZM52.7363 1.125H57.0488L55.2207 12.1406C55.1947 12.3073 55.1999 12.4479 55.2363 12.5625C55.2728 12.6719 55.3457 12.7552 55.4551 12.8125C55.5697 12.8646 55.7207 12.8906 55.9082 12.8906C56.0332 12.8906 56.1868 12.875 56.3691 12.8438C56.5514 12.8073 56.6895 12.7813 56.7832 12.7656L56.9082 15.7969C56.6895 15.8594 56.3952 15.9297 56.0254 16.0078C55.6608 16.0911 55.2363 16.1458 54.752 16.1719C53.7415 16.2188 52.9186 16.112 52.2832 15.8516C51.653 15.5911 51.2155 15.1849 50.9707 14.6328C50.7311 14.0755 50.6895 13.3802 50.8457 12.5469L52.7363 1.125ZM64.1289 9.25L63.0039 16H58.6914L61.3477 -4.76837e-07H65.5039L64.4727 6.28125H64.5977C64.9883 5.51562 65.5352 4.91927 66.2383 4.49219C66.9414 4.0599 67.7383 3.84375 68.6289 3.84375C69.4727 3.84375 70.1758 4.03646 70.7383 4.42187C71.3008 4.80729 71.6992 5.33854 71.9336 6.01562C72.168 6.69271 72.2122 7.46875 72.0664 8.34375L70.7852 16H66.4727L67.5977 9.25C67.6914 8.65625 67.6159 8.1901 67.3711 7.85156C67.1315 7.51302 66.7383 7.34375 66.1914 7.34375C65.8372 7.34375 65.5143 7.42188 65.2227 7.57812C64.9362 7.72917 64.6966 7.94792 64.5039 8.23437C64.3164 8.51562 64.1914 8.85417 64.1289 9.25ZM74.3438 20.5C73.8438 20.5 73.3776 20.4609 72.9453 20.3828C72.513 20.3099 72.1354 20.2083 71.8125 20.0781L73.2656 17.0156C73.599 17.1406 73.9062 17.2214 74.1875 17.2578C74.474 17.2943 74.7266 17.2734 74.9453 17.1953C75.1641 17.1172 75.3438 16.9688 75.4844 16.75L75.625 16.5313L73.4844 4H77.8281L78.375 12.3125H78.5L81.8594 4H86.5469L80.0156 17C79.6823 17.6615 79.2656 18.2552 78.7656 18.7812C78.2708 19.3125 77.6615 19.7318 76.9375 20.0391C76.2135 20.3464 75.349 20.5 74.3438 20.5ZM102.438 7.90625H98.5625C98.5833 7.65625 98.5391 7.44271 98.4297 7.26562C98.3203 7.08854 98.1667 6.95312 97.9688 6.85937C97.776 6.76562 97.5573 6.71875 97.3125 6.71875C96.8854 6.71875 96.4974 6.8151 96.1484 7.00781C95.7995 7.19531 95.6042 7.44271 95.5625 7.75C95.5365 7.86979 95.5755 7.98177 95.6797 8.08594C95.7839 8.1901 96.0573 8.28646 96.5 8.375L98.875 8.8125C100.063 9.03125 100.927 9.42969 101.469 10.0078C102.016 10.5807 102.214 11.3385 102.063 12.2812C101.922 13.099 101.563 13.8021 100.984 14.3906C100.406 14.9792 99.6719 15.4323 98.7813 15.75C97.8958 16.0625 96.9167 16.2187 95.8438 16.2187C93.9531 16.2187 92.5365 15.8411 91.5938 15.0859C90.6563 14.3307 90.2292 13.3437 90.3125 12.125H94.5C94.5104 12.5156 94.6406 12.8099 94.8906 13.0078C95.1458 13.2005 95.4844 13.3021 95.9062 13.3125C96.3646 13.3281 96.7656 13.237 97.1094 13.0391C97.4531 12.8359 97.6458 12.5833 97.6875 12.2812C97.7031 12.1094 97.6276 11.9792 97.4609 11.8906C97.2995 11.8021 96.9896 11.7135 96.5313 11.625L94.4688 11.25C93.2813 11.0365 92.4167 10.6094 91.875 9.96875C91.3333 9.32292 91.1458 8.5 91.3125 7.5C91.4479 6.70312 91.7708 6.03385 92.2813 5.49219C92.7969 4.95052 93.474 4.54167 94.3125 4.26562C95.151 3.98438 96.1198 3.84375 97.2188 3.84375C99.0156 3.84375 100.375 4.20573 101.297 4.92969C102.224 5.64844 102.604 6.64062 102.438 7.90625ZM112.246 4L111.715 7.125H103.809L104.34 4H112.246ZM106.34 1.125H110.652L108.824 12.1406C108.798 12.3073 108.803 12.4479 108.84 12.5625C108.876 12.6719 108.949 12.7552 109.059 12.8125C109.173 12.8646 109.324 12.8906 109.512 12.8906C109.637 12.8906 109.79 12.875 109.973 12.8438C110.155 12.8073 110.293 12.7813 110.387 12.7656L110.512 15.7969C110.293 15.8594 109.999 15.9297 109.629 16.0078C109.264 16.0911 108.84 16.1458 108.355 16.1719C107.345 16.2188 106.522 16.112 105.887 15.8516C105.257 15.5911 104.819 15.1849 104.574 14.6328C104.335 14.0755 104.293 13.3802 104.449 12.5469L106.34 1.125ZM117.627 16.2187C116.325 16.2187 115.252 15.9609 114.408 15.4453C113.57 14.9245 112.981 14.2005 112.643 13.2734C112.304 12.3411 112.236 11.2604 112.439 10.0313C112.643 8.80208 113.067 7.72396 113.713 6.79687C114.359 5.86458 115.189 5.14062 116.205 4.625C117.221 4.10417 118.382 3.84375 119.689 3.84375C120.986 3.84375 122.054 4.10417 122.893 4.625C123.736 5.14062 124.327 5.86458 124.666 6.79687C125.01 7.72396 125.08 8.80208 124.877 10.0313C124.674 11.2604 124.247 12.3411 123.596 13.2734C122.945 14.2005 122.111 14.9245 121.096 15.4453C120.085 15.9609 118.929 16.2187 117.627 16.2187ZM118.158 13.0312C118.533 13.0312 118.874 12.9089 119.182 12.6641C119.494 12.4193 119.76 12.0703 119.979 11.6172C120.202 11.1641 120.367 10.625 120.471 10C120.575 9.36979 120.59 8.83073 120.518 8.38281C120.445 7.92969 120.294 7.58073 120.064 7.33594C119.835 7.09115 119.533 6.96875 119.158 6.96875C118.783 6.96875 118.439 7.09115 118.127 7.33594C117.814 7.58073 117.549 7.92969 117.33 8.38281C117.111 8.83073 116.95 9.36979 116.846 10C116.742 10.625 116.723 11.1641 116.791 11.6172C116.864 12.0703 117.015 12.4193 117.244 12.6641C117.479 12.9089 117.783 13.0312 118.158 13.0312ZM125.627 16L127.627 4H131.814L131.439 6.28125H131.564C131.924 5.4375 132.374 4.82031 132.916 4.42969C133.458 4.03906 134.049 3.84375 134.689 3.84375C134.877 3.84375 135.057 3.85938 135.229 3.89063C135.406 3.91667 135.58 3.95312 135.752 4L135.127 7.6875C134.924 7.60937 134.671 7.55469 134.369 7.52344C134.067 7.48698 133.799 7.46875 133.564 7.46875C133.148 7.46875 132.757 7.5651 132.393 7.75781C132.033 7.94531 131.726 8.21094 131.471 8.55469C131.221 8.89323 131.054 9.29167 130.971 9.75L129.939 16H125.627ZM140.197 16.2187C138.916 16.2187 137.854 15.974 137.01 15.4844C136.166 14.9896 135.572 14.2812 135.229 13.3594C134.885 12.4323 134.822 11.3229 135.041 10.0313C135.249 8.79167 135.679 7.70833 136.33 6.78125C136.986 5.85417 137.812 5.13281 138.807 4.61719C139.807 4.10156 140.926 3.84375 142.166 3.84375C143.072 3.84375 143.867 3.98438 144.549 4.26562C145.236 4.54687 145.796 4.95573 146.229 5.49219C146.661 6.02865 146.952 6.67708 147.104 7.4375C147.26 8.19271 147.26 9.04687 147.104 10L146.947 11H136.229L136.604 8.625H143.354C143.406 8.28125 143.372 7.97917 143.252 7.71875C143.137 7.45312 142.952 7.2474 142.697 7.10156C142.447 6.95052 142.145 6.875 141.791 6.875C141.437 6.875 141.104 6.95052 140.791 7.10156C140.484 7.2526 140.221 7.46354 140.002 7.73437C139.788 8.00521 139.645 8.32292 139.572 8.6875L139.104 11.1875C139.041 11.5729 139.064 11.9167 139.174 12.2188C139.283 12.5208 139.473 12.7578 139.744 12.9297C140.015 13.1016 140.364 13.1875 140.791 13.1875C141.083 13.1875 141.359 13.1484 141.619 13.0703C141.885 12.987 142.119 12.8672 142.322 12.7109C142.531 12.5495 142.697 12.3542 142.822 12.125H146.76C146.479 12.9583 146.033 13.6823 145.424 14.2969C144.82 14.9063 144.075 15.3802 143.189 15.7187C142.309 16.0521 141.312 16.2187 140.197 16.2187Z" fill="#FC462D"/>
</svg>
